<?xml version="1.0" standalone="no"?>
<!DOCTYPE svg PUBLIC "-//W3C//DTD SVG 20010904//EN"
 "http://www.w3.org/TR/2001/REC-SVG-20010904/DTD/svg10.dtd">
<svg version="1.0" xmlns="http://www.w3.org/2000/svg"
 width="512.000000pt" height="512.000000pt" viewBox="0 0 512.000000 512.000000"
 preserveAspectRatio="xMidYMid meet">

<g transform="translate(0.000000,512.000000) scale(0.100000,-0.100000)"
fill="#000000" stroke="none">
<path d="M632 4743 c-19 -9 -48 -30 -64 -47 -64 -64 -63 -46 -66 -652 l-3
-552 -97 -4 c-112 -4 -153 -22 -187 -78 -18 -32 -20 -57 -25 -278 l-5 -244
-39 -13 c-70 -24 -135 -109 -136 -177 0 -29 345 -1942 356 -1974 14 -38 56
-85 97 -107 l42 -22 1460 -3 c1034 -2 1476 1 1513 9 64 13 118 56 142 114 10
22 50 183 90 358 l74 318 37 -37 c37 -36 37 -37 22 -69 -10 -21 -13 -43 -9
-61 5 -20 129 -151 394 -417 437 -437 449 -447 572 -447 88 0 149 22 209 76
67 60 95 127 96 224 0 130 -1 132 -447 578 -379 378 -395 392 -431 392 -21 0
-48 -5 -59 -11 -18 -10 -27 -5 -70 38 l-50 50 51 88 c258 450 171 1033 -206
1385 l-68 64 -5 342 c-5 326 -6 344 -26 370 -44 59 -67 68 -179 72 l-105 4 0
277 0 277 -27 55 c-19 35 -43 64 -71 84 l-44 30 -1351 2 c-1240 2 -1355 1
-1385 -14z m2700 -160 c17 -15 18 -46 18 -565 l0 -550 -32 8 c-61 13 -209 19
-303 13 -467 -35 -875 -373 -1002 -831 l-27 -98 -232 0 -232 0 -96 138 c-137
198 -108 186 -474 190 l-292 3 2 838 c3 693 5 841 17 854 12 16 117 17 1324
17 1205 0 1312 -1 1329 -17z m328 -969 c0 -141 -4 -254 -8 -252 -4 2 -38 16
-75 32 l-67 29 0 224 0 223 75 0 75 0 0 -256z m-435 -288 c132 -11 297 -70
422 -153 78 -51 206 -174 259 -249 213 -298 240 -697 69 -1021 -130 -247 -340
-414 -621 -495 -68 -20 -102 -23 -244 -23 -142 0 -176 3 -244 23 -187 54 -334
141 -457 269 -93 98 -129 149 -185 267 -66 140 -88 242 -88 411 0 214 46 370
159 540 164 247 436 410 724 434 47 4 97 6 111 5 14 -2 57 -5 95 -8z m-2725
-216 l0 -220 -75 0 -75 0 0 213 c0 118 3 217 7 220 3 4 37 7 75 7 l68 0 0
-220z m712 -392 c9 -7 51 -64 93 -126 43 -62 90 -124 104 -139 49 -49 72 -53
326 -53 l235 0 0 -53 c0 -210 75 -446 200 -633 63 -93 188 -221 281 -287 93
-66 259 -143 376 -174 88 -24 116 -27 278 -27 199 -1 286 14 426 73 38 16 69
24 69 19 0 -13 -118 -522 -126 -542 -3 -8 -15 -17 -27 -20 -12 -3 -668 -6
-1458 -6 -1354 0 -1438 1 -1457 17 -16 15 -46 168 -192 977 -166 918 -172 960
-155 973 26 19 1003 19 1027 1z m2786 -1181 l42 -43 -35 -34 -34 -33 -41 39
c-22 21 -40 43 -40 48 0 11 50 66 60 66 3 0 25 -19 48 -43z m270 -140 l42 -43
-100 -99 -100 -99 -45 44 -45 44 97 98 c54 54 100 98 103 98 3 0 25 -19 48
-43z m677 -709 c10 -54 -1 -86 -44 -130 -34 -33 -45 -38 -85 -38 -26 0 -59 6
-74 14 -15 8 -137 125 -272 260 l-245 246 100 100 100 100 257 -257 c220 -222
257 -263 263 -295z"/>
<path d="M963 4320 c-49 -20 -59 -96 -17 -129 25 -20 39 -21 269 -21 270 0
279 2 291 67 5 27 1 37 -24 63 l-30 30 -234 -1 c-128 0 -243 -4 -255 -9z"/>
<path d="M1809 4301 c-16 -16 -29 -37 -29 -46 0 -24 27 -72 45 -79 22 -8 1208
-8 1230 0 24 10 46 60 39 89 -3 14 -18 34 -31 45 -25 19 -42 20 -625 20 l-600
0 -29 -29z"/>
<path d="M945 3795 c-16 -15 -25 -36 -25 -55 0 -19 9 -40 25 -55 23 -24 29
-25 158 -25 121 0 137 2 161 21 20 16 26 29 26 59 0 30 -6 43 -26 59 -24 19
-40 21 -161 21 -129 0 -135 -1 -158 -25z"/>
<path d="M1455 3795 c-16 -15 -25 -36 -25 -55 0 -19 9 -40 25 -55 l24 -25 399
0 c389 0 400 1 426 21 37 29 37 89 0 118 -26 20 -37 21 -426 21 l-399 0 -24
-25z"/>
<path d="M2514 3797 c-20 -17 -27 -33 -27 -57 0 -24 7 -40 27 -57 27 -23 29
-23 277 -23 l251 0 29 29 c16 16 29 39 29 51 0 12 -13 35 -29 51 l-29 29 -251
0 c-248 0 -250 0 -277 -23z"/>
<path d="M942 3287 c-27 -29 -28 -77 -3 -108 l19 -24 514 -3 c282 -1 523 0
536 3 61 15 82 86 37 130 l-24 25 -529 0 -529 0 -21 -23z"/>
<path d="M3030 3214 c-472 -56 -804 -445 -777 -907 19 -323 207 -597 503 -733
110 -51 219 -74 354 -74 250 0 451 87 626 273 164 172 244 389 231 627 -25
444 -370 789 -813 813 -49 3 -105 3 -124 1z m253 -180 c322 -83 544 -388 524
-719 -12 -198 -106 -382 -256 -502 -262 -208 -635 -205 -891 8 -195 162 -288
432 -235 684 8 39 35 112 61 164 38 77 62 109 128 175 90 90 160 136 265 172
131 46 273 52 404 18z"/>
<path d="M530 2007 c-56 -28 -56 -30 24 -467 65 -359 76 -405 96 -422 20 -16
44 -18 244 -18 158 1 226 4 237 13 44 34 44 36 -31 450 -39 215 -76 402 -81
413 -6 12 -22 27 -36 33 -35 16 -420 15 -453 -2z m407 -437 c28 -157 52 -291
52 -298 1 -10 -25 -12 -111 -10 l-112 3 -53 290 c-29 160 -53 294 -53 298 0 4
51 6 112 5 l113 -3 52 -285z"/>
</g>
</svg>
